<svg xmlns="http://www.w3.org/2000/svg" xml:space="preserve" width="300px" height="66px" x="0px" y="0px" viewBox="0 0 300 66"><path d="M272.716 29.422a1.91 1.91 0 0 1 1.904-1.907h3.982a1.91 1.91 0 0 1 1.904 1.907v25.502a1.91 1.91 0 0 1-1.904 1.907h-3.982a1.91 1.91 0 0 1-1.904-1.907zM173.812 57.711v-7.239c0-.193.127-.281.264-.281 0 0 9.57.049 9.914.049.789 0 1.648-1.009 1.648-1.752v-3.552c0-.836-1.021-1.619-1.648-1.619h-26.877c-.99 0-1.828.629-1.828 1.619v3.552c0 .99.838 1.752 1.828 1.752l9.545-.049c.172 0 .279.085.279.281v7.333c0 1.038 1.188 1.681 1.877 1.681h3.178c.907 0 1.82-.87 1.82-1.775zM209.474 57.711v-7.239c0-.193.125-.281.262-.281 0 0 9.572.049 9.916.049.789 0 1.646-1.009 1.646-1.752v-3.552c0-.836-1.021-1.619-1.646-1.619h-24.52c-.99 0-1.83.629-1.83 1.619v3.552c0 .99.84 1.752 1.83 1.752 0 0 7.016-.049 7.188-.049.17 0 .279.085.279.281v7.333c0 1.038 1.188 1.681 1.875 1.681h3.18c.907 0 1.82-.87 1.82-1.775zM132.674 41.016h5.977c.195 0 .363-.017.363-.152V29.497c0-.79.99-1.648 1.732-1.648h3.994c.834 0 1.578 1.021 1.578 1.648v25.496c0 .99-.668 1.828-1.656 1.828h-3.877c-.99 0-1.77-.838-1.77-1.828V48.31s.045-.221-.195-.221h-6.24c-1.04 0-1.68-1.087-1.68-1.876v-3.375c0-.907.868-1.822 1.774-1.822zM116.772 37.895c0-1.009.825-1.833 1.832-1.833h.111c1.009 0 1.832.825 1.832 1.833v11.817c0 1.008.824 1.832 1.832 1.832h3.604a1.838 1.838 0 0 0 1.832-1.831V30.627a1.839 1.839 0 0 0-1.832-1.832h-21.911c-1.008 0-1.83.826-1.83 1.832v3.602c0 1.009.822 1.833 1.83 1.833h3.981c1.008 0 1.83.823 1.83 1.831v11.247c0 1.008.825 1.832 1.833 1.832h3.224a1.837 1.837 0 0 0 1.831-1.832V37.895zM182.681 37.393c0 .979-.799 1.778-1.777 1.778h-20.885a1.783 1.783 0 0 1-1.779-1.778V20.06c0-.979.801-1.778 1.779-1.778h20.885c.979 0 1.777.799 1.777 1.778zm-8.432-4.811a1.972 1.972 0 0 0 1.969-1.969v-3.771a1.973 1.973 0 0 0-1.969-1.969h-7.576a1.973 1.973 0 0 0-1.969 1.969v3.771c0 1.084.883 1.969 1.969 1.969zM206.216 17.465c3.137 0 5.814 1.078 8.029 3.231 2.217 2.154 3.326 4.798 3.326 7.938 0 3.138-1.109 5.815-3.326 8.031-2.215 2.215-4.893 3.323-8.029 3.323s-5.785-1.107-7.938-3.323c-2.154-2.216-3.232-4.893-3.232-8.031 0-3.14 1.078-5.784 3.232-7.938 2.153-2.153 4.801-3.231 7.938-3.231zm0 15.741c1.242 0 2.314-.467 3.215-1.401.902-.932 1.355-1.99 1.355-3.171 0-1.244-.453-2.287-1.355-3.125-.9-.84-1.973-1.261-3.215-1.261-1.184 0-2.211.42-3.08 1.261-.871.839-1.305 1.882-1.305 3.125 0 1.182.434 2.239 1.305 3.171.869.934 1.896 1.401 3.08 1.401zM254.894 38.62a1.838 1.838 0 0 0 1.832-1.832v-.111a1.836 1.836 0 0 0-1.832-1.832h-11.818a1.837 1.837 0 0 1-1.832-1.832v-3.604c0-1.007.824-1.832 1.832-1.832h19.084c1.006 0 1.832.825 1.832 1.832V51.32c0 1.008-.826 1.83-1.832 1.83h-3.602a1.835 1.835 0 0 1-1.832-1.83v-3.981c0-1.008-.824-1.83-1.832-1.83h-11.246a1.838 1.838 0 0 1-1.832-1.833v-3.224c0-1.007.824-1.831 1.832-1.831h11.246z" style="fill:#fff"/><path d="M276.79 32.785c-4.941 0-8.961-4.021-8.961-8.962 0-4.943 4.02-8.961 8.961-8.961 4.943 0 8.963 4.019 8.963 8.961s-4.02 8.962-8.963 8.962zm0-11.594a2.635 2.635 0 0 0-2.631 2.632 2.636 2.636 0 0 0 2.631 2.633 2.638 2.638 0 0 0 2.635-2.633 2.637 2.637 0 0 0-2.635-2.632zM224.382 19.254a1.91 1.91 0 0 1 1.904-1.906h4.078c1.049 0 1.906.859 1.906 1.906v36.392c0 1.05-.857 1.904-1.906 1.904h-4.078a1.907 1.907 0 0 1-1.904-1.904z" style="fill:#fff"/><path d="M228.458 22.644c-4.941 0-8.961-4.02-8.961-8.962s4.02-8.961 8.961-8.961c4.941 0 8.961 4.019 8.961 8.961s-4.02 8.962-8.961 8.962zm0-11.595a2.636 2.636 0 0 0-2.633 2.632 2.636 2.636 0 0 0 2.633 2.633 2.636 2.636 0 0 0 2.633-2.633 2.636 2.636 0 0 0-2.633-2.632z" style="fill:#fff"/><path d="M137.425 31.29c-4.941 0-8.961-4.021-8.961-8.964 0-4.942 4.02-8.961 8.961-8.961 4.941 0 8.963 4.02 8.963 8.961 0 4.942-4.022 8.964-8.963 8.964zm0-11.596a2.634 2.634 0 0 0-2.631 2.632 2.635 2.635 0 0 0 2.631 2.633 2.639 2.639 0 0 0 2.635-2.633 2.638 2.638 0 0 0-2.635-2.632z" style="fill:#fff" transform="translate(4.578)"/><path d="m75.415 35.666-16.299 6.9-5.604-13.238a2.329 2.329 0 0 0-3.055-1.237 2.33 2.33 0 0 0-1.238 3.055l2.516 5.939-12.449 5.271-8.058-19.031a2.33 2.33 0 0 0-4.293 1.818l8.058 19.031-5.436 2.301a2.33 2.33 0 1 0 1.818 4.292l22.176-9.389 5.18 12.231a2.33 2.33 0 1 0 4.293-1.817l-2.09-4.935 16.299-6.899a2.33 2.33 0 0 0-1.818-4.292z" style="fill:#fff"/><path d="M26.586 26.369c-4.824.037-8.778-3.857-8.814-8.679-.037-4.825 3.858-8.777 8.682-8.814 4.823-.037 8.776 3.857 8.813 8.682.036 4.821-3.858 8.775-8.681 8.811zm-.093-12.366a3.626 3.626 0 0 0-3.594 3.647 3.626 3.626 0 0 0 3.648 3.592 3.625 3.625 0 0 0 3.592-3.647 3.623 3.623 0 0 0-3.646-3.592zM48.933 33.364c-4.822.036-8.777-3.858-8.814-8.681-.036-4.824 3.859-8.777 8.681-8.814 4.824-.037 8.777 3.857 8.814 8.682.037 4.823-3.857 8.777-8.681 8.813zm-.094-12.367a3.625 3.625 0 0 0-3.592 3.647 3.623 3.623 0 0 0 3.646 3.593 3.625 3.625 0 0 0 3.592-3.647 3.622 3.622 0 0 0-3.646-3.593zM33.094 51.146c.037 4.822-3.857 8.778-8.681 8.814-4.824.036-8.777-3.858-8.813-8.682-.036-4.823 3.857-8.777 8.681-8.814 4.823-.035 8.777 3.859 8.813 8.682zm-12.367.094a3.623 3.623 0 0 0 3.647 3.592 3.625 3.625 0 0 0 3.593-3.646 3.623 3.623 0 0 0-3.647-3.592 3.623 3.623 0 0 0-3.593 3.646zM73.78 34.536c-.037-4.822 3.855-8.777 8.68-8.814 4.824-.037 8.775 3.859 8.813 8.682.037 4.824-3.857 8.777-8.682 8.813-4.822.036-8.776-3.857-8.811-8.681zm12.367-.093a3.628 3.628 0 0 0-3.65-3.592 3.626 3.626 0 0 0-3.592 3.646 3.624 3.624 0 0 0 3.648 3.592 3.626 3.626 0 0 0 3.594-3.646z" style="fill:#fff"/></svg>